PathFileType	4	(X/Y/Z)	D:\MotionData\NordSprintingStudy\BertecTesting2023-09-14\Generated_files\Trimmed_running_0600000001-Feet.trc
DataRate	CameraRate	NumFrames	NumMarkers	Units	OrigDataRate	OrigDataStartFrame	OrigNumFrames
200.00	200.00	      19	10	mm	200.00	951	      1900
Frame#	Time	r_calc			r_toe			r_meta			r_ankle			r_mankle			l_calc			l_toe			l_meta			l_ankle			l_mankle			
		X1	Y1	Z1	X2	Y2	Z2	X3	Y3	Z3	X4	Y4	Z4	X5	Y5	Z5	X6	Y6	Z6	X7	Y7	Z7	X8	Y8	Z8	X9	Y9	Z9	X10	Y10	Z10	

951	4.750	386.22922	216.16522	679.74493	276.17331	187.02527	493.54837	284.24188	140.48575	539.59900	397.08798	159.73917	608.25751	391.98190	241.31908	585.09406	1193.03821	343.46844	101.64826	1394.58203	379.14059	167.09671	1353.71741	415.39145	117.51823	1227.98315	410.93518	156.63005	1255.81519	334.13681	187.63034	
952	4.755	404.90533	221.70683	694.60419	288.59918	185.84213	513.28955	298.44043	140.56453	560.73059	413.48807	161.71329	624.38782	407.25006	242.85924	598.31024	1183.32788	344.72675	97.02384	1385.50842	382.35938	159.78664	1343.35974	418.43036	111.50967	1218.06812	411.73953	152.01099	1247.25549	335.28491	182.46638	
953	4.760	424.78836	225.18810	706.68176	303.00708	185.09299	531.12939	314.59546	140.93307	579.87537	431.07050	164.16725	638.60242	424.35388	244.62491	611.08240	1170.80334	345.34299	92.16961	1374.13757	385.40601	151.18924	1330.18225	421.28268	104.29865	1205.97253	412.49112	147.21663	1236.56982	336.15796	176.29170	
954	4.765	445.91849	229.23238	717.79913	318.70209	184.70673	547.04376	331.72916	141.86383	596.84680	449.65335	166.49144	651.10291	442.36154	246.44217	621.21350	1156.28809	345.57211	87.25381	1360.28198	388.14536	141.47473	1314.44690	423.54364	96.16311	1191.56445	413.32349	142.00587	1223.94409	336.58002	169.83406	
955	4.770	467.35266	233.49300	727.29340	335.45575	184.78760	561.18872	350.37244	142.65761	611.45221	469.48047	168.95796	661.68726	461.18021	248.87578	630.65424	1139.34290	345.80847	82.51209	1344.63831	390.06946	130.86435	1296.88269	425.27609	87.29518	1175.94495	413.04257	136.58467	1209.38196	336.88992	162.80734	
956	4.775	489.21634	237.51166	735.07709	353.12894	185.35489	573.46405	370.03326	144.22592	624.03540	489.67221	171.39798	670.31128	480.57892	251.00029	637.99133	1120.52393	345.71472	77.58228	1327.08972	392.01157	119.21033	1277.56580	426.44260	77.86387	1158.55542	412.68289	130.44440	1193.06091	337.20883	155.93222	
957	4.780	511.43542	241.25282	741.58850	371.54889	186.38071	583.70410	390.08099	145.91449	634.12885	510.40326	174.01613	677.28235	500.36499	253.11516	643.93982	1099.89819	345.61462	73.17323	1307.79541	392.31641	107.32370	1256.32556	426.54016	67.39804	1139.42603	412.82022	124.45715	1175.28491	336.68942	148.63373	
958	4.785	533.41150	243.97351	746.21716	390.54285	187.83708	591.74304	410.44330	147.78984	641.93719	531.19049	176.16794	682.18304	520.80487	255.40244	648.90747	1077.84314	345.48233	68.69024	1287.06726	391.89417	94.72342	1234.11304	425.80414	56.86671	1119.61755	412.86630	118.54219	1156.01001	337.03629	141.16356	
959	4.790	554.98462	247.74486	749.64105	409.93805	189.69612	597.41504	431.02106	149.63474	647.48065	551.75781	178.87086	685.42889	541.08844	257.27219	651.93744	1054.62952	346.66159	64.85810	1265.60547	390.59521	81.86610	1211.42920	424.60730	46.37299	1099.20825	412.71301	112.45712	1136.02368	336.78668	133.89204	
960	4.795	576.15729	248.62212	750.87817	429.57855	191.91478	600.59320	451.57510	151.27319	650.61157	572.54150	180.46593	687.23877	561.98230	259.21518	653.50580	1030.62170	345.39371	62.54131	1243.47876	386.05753	69.43501	1188.05396	425.53851	41.61946	1078.86316	412.69479	106.16926	1114.86182	336.07568	126.73431	
961	4.800	596.89313	250.83858	751.48016	449.37564	194.38962	601.30585	471.83224	153.03571	651.56537	592.73920	182.06741	687.33679	582.66998	261.02365	653.88672	1005.09076	344.20227	60.09288	1219.41870	378.44553	60.62933	1160.99927	422.57339	44.14704	1058.36670	410.67682	100.32935	1090.43103	331.96317	120.47733	
962	4.805	616.47845	252.24939	750.54071	469.25748	197.00206	599.62006	491.65378	155.47662	649.93634	612.45721	183.50165	685.91394	603.05261	262.65921	652.29437	974.61725	342.51593	53.70605	1189.62219	374.45422	59.15691	1132.49719	420.58524	44.94375	1034.44409	404.08517	98.28429	1060.56677	323.49176	115.83105	
963	4.810	635.19794	253.60278	748.65210	489.15195	199.63358	595.60297	511.17548	157.59436	646.16443	631.47180	185.58652	683.39001	623.42230	264.27075	649.81439	943.85400	334.50757	47.42766	1158.94775	373.92996	58.32598	1101.34839	419.26422	45.66064	1004.46606	396.61029	98.92104	1029.68323	316.37213	110.16576	
964	4.815	652.62897	253.73080	745.56793	508.98727	202.16560	589.32166	530.21796	159.45662	640.29053	649.95477	186.04927	679.48859	642.94299	265.74011	646.01599	916.30939	331.91751	49.36168	1132.00635	370.64682	56.82050	1073.14038	415.91653	46.01724	973.56262	389.07919	99.27969	1004.38434	310.49698	108.21996	
965	4.820	668.06897	254.67085	741.55896	528.69153	204.47957	580.84338	548.40643	161.01382	632.23163	667.14941	187.76231	674.33282	661.98474	267.21060	641.08746	887.73340	326.86417	49.07972	1102.97290	368.71225	56.58590	1043.61707	413.55911	46.64837	947.61572	384.32211	99.92342	980.71497	305.27435	108.90015	
966	4.825	681.24194	255.63988	736.21094	548.19263	206.45699	570.23523	565.36554	163.41780	621.84381	683.21356	188.92578	668.07770	679.69934	268.51993	634.86536	859.64996	324.02356	50.89082	1074.04932	367.72549	56.06867	1014.04834	412.12036	46.70897	922.57971	382.18207	101.39129	953.92780	302.05569	109.34895	
967	4.830	692.38019	256.42572	729.73260	567.41882	207.97920	557.56427	581.63702	165.61812	609.34259	697.41101	190.06717	660.78308	696.04156	270.06140	627.43420	830.59070	323.21310	52.19180	1044.88745	367.09387	55.60380	984.71484	411.37018	46.96299	894.79254	381.28076	102.62567	925.81854	300.33832	110.01624	
968	4.835	700.90179	257.16541	721.85413	586.29816	208.92773	542.89764	596.92737	167.00264	595.12585	709.58038	191.82613	652.70123	711.18103	271.14331	618.52777	801.69385	323.01596	53.59832	1015.52374	367.46579	55.40691	955.25293	411.56339	46.99037	865.92297	381.24493	104.46255	897.60864	300.27841	111.26149	
969	4.840	708.16138	258.42654	713.39972	604.78430	209.55809	526.25885	611.32635	168.38867	578.72998	720.55737	191.78331	643.26453	724.81586	271.42975	608.97888	772.24683	324.55008	55.30825	985.84930	368.52658	54.95630	925.71979	412.57516	46.79370	836.85321	382.55020	106.06738	869.27148	301.67365	112.61570	
